<svg width="120" height="120" viewBox="0 0 120 120" fill="none" xmlns="http://www.w3.org/2000/svg">
<circle cx="59.596" cy="60" r="20" fill="#CFD8DC" fill-opacity="0.3"/>
<path fill-rule="evenodd" clip-rule="evenodd" d="M119.192 67C115.725 96.839 90.3652 120 59.596 120C28.8268 120 3.46714 96.839 0 67H26.3174C29.5444 82.4195 43.2178 94 59.596 94C75.9742 94 89.6476 82.4195 92.8747 67H119.192ZM119.192 53C115.725 23.161 90.3652 0 59.596 0C28.8268 0 3.46714 23.161 0 53H26.3174C29.5444 37.5805 43.2178 26 59.596 26C75.9742 26 89.6476 37.5805 92.8747 53H119.192Z" fill="#CFD8DC" fill-opacity="0.3"/>
</svg>
